<?xml version="1.0" standalone="no"?>
<!DOCTYPE svg PUBLIC "-//W3C//DTD SVG 20010904//EN"
 "http://www.w3.org/TR/2001/REC-SVG-20010904/DTD/svg10.dtd">
<svg version="1.0" xmlns="http://www.w3.org/2000/svg"
 width="120.000000pt" height="120.000000pt" viewBox="0 0 120.000000 120.000000"
 preserveAspectRatio="xMidYMid meet">

<g transform="translate(0.000000,120.000000) scale(0.100000,-0.100000)"
fill="#000000" stroke="none">
<path d="M442 767 c-58 -32 -71 -91 -37 -164 25 -55 169 -213 194 -213 6 0 47
35 91 78 55 54 88 96 106 136 26 57 26 58 9 102 -18 47 -54 74 -97 74 -32 0
-85 -34 -93 -59 -3 -12 -10 -21 -15 -21 -5 0 -12 9 -15 21 -8 26 -62 59 -95
59 -14 -1 -35 -6 -48 -13z"/>
</g>
</svg>
