<?xml version="1.0" standalone="no"?>
<!DOCTYPE svg PUBLIC "-//W3C//DTD SVG 20010904//EN"
 "http://www.w3.org/TR/2001/REC-SVG-20010904/DTD/svg10.dtd">
<svg version="1.0" xmlns="http://www.w3.org/2000/svg"
 width="120.000000pt" height="120.000000pt" viewBox="0 0 120.000000 120.000000"
 preserveAspectRatio="xMidYMid meet">

<g transform="translate(0.000000,120.000000) scale(0.100000,-0.100000)"
fill="#000000" stroke="none">
<path d="M423 790 c-37 -22 -63 -67 -63 -108 0 -53 48 -128 136 -212 47 -44
93 -80 103 -80 10 0 57 36 104 80 90 85 137 158 137 214 0 65 -63 126 -130
126 -37 0 -85 -23 -100 -47 -10 -17 -10 -17 -20 0 -28 46 -113 60 -167 27z
m136 -26 c17 -14 31 -32 31 -40 0 -8 5 -14 10 -14 6 0 10 6 10 14 0 8 14 26
31 40 73 62 179 10 179 -87 0 -60 -101 -191 -197 -254 -29 -19 -47 -8 -137 80
-94 92 -126 170 -95 230 32 62 114 77 168 31z"/>
</g>
</svg>
